<?xml version="1.0" encoding="UTF-8" standalone="no"?>
<!DOCTYPE svg PUBLIC "-//W3C//DTD SVG 1.1//EN" "http://www.w3.org/Graphics/SVG/1.1/DTD/svg11.dtd">
<svg width="100%" height="100%" viewBox="0 0 512 512" version="1.1" xmlns="http://www.w3.org/2000/svg" xmlns:xlink="http://www.w3.org/1999/xlink" xml:space="preserve" xmlns:serif="http://www.serif.com/" style="fill-rule:evenodd;clip-rule:evenodd;stroke-linecap:round;stroke-linejoin:round;stroke-miterlimit:1.5;">
    <rect id="Artboard1" x="0" y="0" width="512" height="512" style="fill:none;"/>
    <g id="Artboard11" serif:id="Artboard1">
        <g transform="matrix(0.272144,0,0,0.272144,224.91,3.22579)">
            <g>
                <path d="M368.89,511.998L143.234,511.998C127.488,512.032 114.696,499.784 114.662,484.038L114.662,454.884L116.667,452.666L116.667,59.333L114.662,56.992L114.662,29.063C114.628,13.317 126.379,0.036 142.125,0.002L367.78,0.002C383.526,-0.032 397.304,12.705 397.338,28.451L397.338,56.993L395.333,59.668L395.333,452.334L397.338,454.886L397.338,483.427C397.372,499.172 384.636,511.964 368.89,511.998Z" style="fill:rgb(122,109,121);fill-rule:nonzero;"/>
                <path d="M397.338,28.448L397.338,483.428C397.369,499.168 384.63,511.969 368.89,512L349.488,512C365.228,511.969 377.967,499.169 377.936,483.428L377.936,28.448C377.895,12.728 364.156,0 348.436,0L367.776,0C383.527,-0.031 397.297,12.708 397.338,28.448Z" style="fill:rgb(104,94,104);fill-rule:nonzero;"/>
                <rect x="114.662" y="56.992" width="282.676" height="397.893" style="fill:rgb(96,183,255);fill-rule:nonzero;"/>
                <path d="M397.338,454.893L377.919,454.935L377.919,57.043L397.338,57.001L397.338,454.893Z" style="fill:rgb(38,166,254);fill-rule:nonzero;"/>
                <g>
                    <path d="M269.559,489.459L241.456,489.459C237.314,489.459 233.956,486.101 233.956,481.959C233.956,477.817 237.314,474.459 241.456,474.459L269.559,474.459C273.701,474.459 277.059,477.817 277.059,481.959C277.059,486.101 273.701,489.459 269.559,489.459Z" style="fill:rgb(67,63,67);fill-rule:nonzero;"/>
                </g>
                <g>
                    <circle cx="255.507" cy="30.263" r="9.567" style="fill:rgb(67,63,67);"/>
                </g>
            </g>
            <circle cx="256" cy="309.03" r="81.986" style="fill:rgb(196,226,255);"/>
            <path d="M337.981,309.028C337.981,354.31 301.281,391.019 256,391.019C236.01,391.019 217.691,383.861 203.467,371.968C214.05,376.96 225.87,379.745 238.341,379.745C283.622,379.745 320.322,343.046 320.322,297.764C320.322,272.472 308.873,249.852 290.874,234.824C318.713,247.913 337.981,276.217 337.981,309.028Z" style="fill:rgb(149,210,252);fill-rule:nonzero;"/>
            <path d="M285.897,323.768L265.756,309.031L285.898,294.293C289.091,291.956 291.011,288.199 291.035,284.242C291.058,280.285 289.182,276.506 286.017,274.132L265.633,258.844C261.808,255.975 256.774,255.521 252.495,257.659C248.217,259.798 245.56,264.097 245.56,268.88L245.56,294.253L232.895,284.986C229.552,282.54 224.859,283.267 222.414,286.61C219.969,289.953 220.695,294.646 224.038,297.091L240.355,309.03L224.038,320.969C220.695,323.415 219.968,328.108 222.414,331.45C223.883,333.458 226.162,334.522 228.473,334.522C230.01,334.522 231.561,334.051 232.896,333.074L245.561,323.807L245.561,349.179C245.561,353.962 248.219,358.262 252.497,360.401C254.288,361.296 256.209,361.737 258.12,361.737C260.776,361.737 263.41,360.885 265.635,359.216L286.019,343.928C289.184,341.554 291.06,337.775 291.037,333.819C291.011,329.863 289.091,326.105 285.897,323.768ZM260.559,273.789L274.366,284.144L260.559,294.246L260.559,273.789ZM260.559,344.272L260.559,323.814L274.366,333.917L260.559,344.272Z" style="fill:rgb(38,166,254);fill-rule:nonzero;"/>
            <g>
                <g>
                    <circle cx="255.572" cy="187.911" r="10.238" style="fill:rgb(3,148,229);"/>
                </g>
                <g>
                    <path d="M243.829,161.01C241.168,161.01 238.591,159.591 237.232,157.088C235.255,153.448 236.603,148.895 240.243,146.918C245.016,144.325 250.424,142.955 255.882,142.955C261.026,142.955 266.156,144.18 270.718,146.497C274.411,148.372 275.885,152.887 274.009,156.58C272.133,160.273 267.619,161.747 263.926,159.871C261.423,158.6 258.717,157.955 255.882,157.955C252.875,157.955 250.022,158.676 247.402,160.099C246.264,160.717 245.038,161.01 243.829,161.01Z" style="fill:rgb(3,148,229);fill-rule:nonzero;"/>
                </g>
                <g>
                    <path d="M293.143,136.375C291.82,136.375 290.48,136.025 289.266,135.29C279.265,129.233 267.761,126.032 255.999,126.032C244.238,126.032 232.735,129.233 222.734,135.289C219.19,137.435 214.579,136.301 212.434,132.758C210.288,129.215 211.422,124.603 214.965,122.458C227.309,114.983 241.499,111.032 255.999,111.032C270.5,111.032 284.69,114.983 297.035,122.459C300.578,124.605 301.711,129.216 299.566,132.759C298.156,135.087 295.68,136.375 293.143,136.375Z" style="fill:rgb(3,148,229);fill-rule:nonzero;"/>
                </g>
            </g>
        </g>
        <g transform="matrix(-0.328791,0.327363,-0.327363,-0.328791,291.86,176.106)">
            <circle cx="0" cy="0" r="32.753" style="fill:rgb(38,166,254);"/>
        </g>
        <g transform="matrix(0.463972,0,0,0.463972,0.180763,-141.325)">
            <path d="M314.26,936.616L569.199,868.198L630.662,685.152" style="fill:none;stroke:rgb(38,166,254);stroke-width:25.86px;"/>
        </g>
        <g transform="matrix(-0.328791,0.327363,-0.327363,-0.328791,144.098,293.332)">
            <circle cx="0" cy="0" r="32.753" style="fill:rgb(38,166,254);"/>
        </g>
        <g transform="matrix(0.463972,0,0,0.463972,0.180763,-141.325)">
            <path d="M793.496,1023.04L567.162,867.644" style="fill:none;stroke:rgb(38,166,254);stroke-width:25.86px;"/>
        </g>
        <g transform="matrix(0.272144,0,0,0.272144,74.0836,330.821)">
            <g>
                <path d="M368.89,511.998L143.234,511.998C127.488,512.032 114.696,499.784 114.662,484.038L114.662,454.884L116.667,452.666L116.667,59.333L114.662,56.992L114.662,29.063C114.628,13.317 126.379,0.036 142.125,0.002L367.78,0.002C383.526,-0.032 397.304,12.705 397.338,28.451L397.338,56.993L395.333,59.668L395.333,452.334L397.338,454.886L397.338,483.427C397.372,499.172 384.636,511.964 368.89,511.998Z" style="fill:rgb(122,109,121);fill-rule:nonzero;"/>
                <path d="M397.338,28.448L397.338,483.428C397.369,499.168 384.63,511.969 368.89,512L349.488,512C365.228,511.969 377.967,499.169 377.936,483.428L377.936,28.448C377.895,12.728 364.156,0 348.436,0L367.776,0C383.527,-0.031 397.297,12.708 397.338,28.448Z" style="fill:rgb(104,94,104);fill-rule:nonzero;"/>
                <rect x="114.662" y="56.992" width="282.676" height="397.893" style="fill:rgb(96,183,255);fill-rule:nonzero;"/>
                <path d="M397.338,454.893L377.919,454.935L377.919,57.043L397.338,57.001L397.338,454.893Z" style="fill:rgb(38,166,254);fill-rule:nonzero;"/>
                <g>
                    <path d="M269.559,489.459L241.456,489.459C237.314,489.459 233.956,486.101 233.956,481.959C233.956,477.817 237.314,474.459 241.456,474.459L269.559,474.459C273.701,474.459 277.059,477.817 277.059,481.959C277.059,486.101 273.701,489.459 269.559,489.459Z" style="fill:rgb(67,63,67);fill-rule:nonzero;"/>
                </g>
                <g>
                    <circle cx="255.507" cy="30.263" r="9.567" style="fill:rgb(67,63,67);"/>
                </g>
            </g>
            <circle cx="256" cy="309.03" r="81.986" style="fill:rgb(196,226,255);"/>
            <path d="M337.981,309.028C337.981,354.31 301.281,391.019 256,391.019C236.01,391.019 217.691,383.861 203.467,371.968C214.05,376.96 225.87,379.745 238.341,379.745C283.622,379.745 320.322,343.046 320.322,297.764C320.322,272.472 308.873,249.852 290.874,234.824C318.713,247.913 337.981,276.217 337.981,309.028Z" style="fill:rgb(149,210,252);fill-rule:nonzero;"/>
            <path d="M285.897,323.768L265.756,309.031L285.898,294.293C289.091,291.956 291.011,288.199 291.035,284.242C291.058,280.285 289.182,276.506 286.017,274.132L265.633,258.844C261.808,255.975 256.774,255.521 252.495,257.659C248.217,259.798 245.56,264.097 245.56,268.88L245.56,294.253L232.895,284.986C229.552,282.54 224.859,283.267 222.414,286.61C219.969,289.953 220.695,294.646 224.038,297.091L240.355,309.03L224.038,320.969C220.695,323.415 219.968,328.108 222.414,331.45C223.883,333.458 226.162,334.522 228.473,334.522C230.01,334.522 231.561,334.051 232.896,333.074L245.561,323.807L245.561,349.179C245.561,353.962 248.219,358.262 252.497,360.401C254.288,361.296 256.209,361.737 258.12,361.737C260.776,361.737 263.41,360.885 265.635,359.216L286.019,343.928C289.184,341.554 291.06,337.775 291.037,333.819C291.011,329.863 289.091,326.105 285.897,323.768ZM260.559,273.789L274.366,284.144L260.559,294.246L260.559,273.789ZM260.559,344.272L260.559,323.814L274.366,333.917L260.559,344.272Z" style="fill:rgb(38,166,254);fill-rule:nonzero;"/>
            <g>
                <g>
                    <circle cx="255.572" cy="187.911" r="10.238" style="fill:rgb(3,148,229);"/>
                </g>
                <g>
                    <path d="M243.829,161.01C241.168,161.01 238.591,159.591 237.232,157.088C235.255,153.448 236.603,148.895 240.243,146.918C245.016,144.325 250.424,142.955 255.882,142.955C261.026,142.955 266.156,144.18 270.718,146.497C274.411,148.372 275.885,152.887 274.009,156.58C272.133,160.273 267.619,161.747 263.926,159.871C261.423,158.6 258.717,157.955 255.882,157.955C252.875,157.955 250.022,158.676 247.402,160.099C246.264,160.717 245.038,161.01 243.829,161.01Z" style="fill:rgb(3,148,229);fill-rule:nonzero;"/>
                </g>
                <g>
                    <path d="M293.143,136.375C291.82,136.375 290.48,136.025 289.266,135.29C279.265,129.233 267.761,126.032 255.999,126.032C244.238,126.032 232.735,129.233 222.734,135.289C219.19,137.435 214.579,136.301 212.434,132.758C210.288,129.215 211.422,124.603 214.965,122.458C227.309,114.983 241.499,111.032 255.999,111.032C270.5,111.032 284.69,114.983 297.035,122.459C300.578,124.605 301.711,129.216 299.566,132.759C298.156,135.087 295.68,136.375 293.143,136.375Z" style="fill:rgb(3,148,229);fill-rule:nonzero;"/>
                </g>
            </g>
        </g>
        <g transform="matrix(0.272144,0,0,0.272144,299.443,371.303)">
            <g>
                <path d="M368.89,511.998L143.234,511.998C127.488,512.032 114.696,499.784 114.662,484.038L114.662,454.884L116.667,452.666L116.667,59.333L114.662,56.992L114.662,29.063C114.628,13.317 126.379,0.036 142.125,0.002L367.78,0.002C383.526,-0.032 397.304,12.705 397.338,28.451L397.338,56.993L395.333,59.668L395.333,452.334L397.338,454.886L397.338,483.427C397.372,499.172 384.636,511.964 368.89,511.998Z" style="fill:rgb(122,109,121);fill-rule:nonzero;"/>
                <path d="M397.338,28.448L397.338,483.428C397.369,499.168 384.63,511.969 368.89,512L349.488,512C365.228,511.969 377.967,499.169 377.936,483.428L377.936,28.448C377.895,12.728 364.156,0 348.436,0L367.776,0C383.527,-0.031 397.297,12.708 397.338,28.448Z" style="fill:rgb(104,94,104);fill-rule:nonzero;"/>
                <rect x="114.662" y="56.992" width="282.676" height="397.893" style="fill:rgb(96,183,255);fill-rule:nonzero;"/>
                <path d="M397.338,454.893L377.919,454.935L377.919,57.043L397.338,57.001L397.338,454.893Z" style="fill:rgb(38,166,254);fill-rule:nonzero;"/>
                <g>
                    <path d="M269.559,489.459L241.456,489.459C237.314,489.459 233.956,486.101 233.956,481.959C233.956,477.817 237.314,474.459 241.456,474.459L269.559,474.459C273.701,474.459 277.059,477.817 277.059,481.959C277.059,486.101 273.701,489.459 269.559,489.459Z" style="fill:rgb(67,63,67);fill-rule:nonzero;"/>
                </g>
                <g>
                    <circle cx="255.507" cy="30.263" r="9.567" style="fill:rgb(67,63,67);"/>
                </g>
            </g>
            <circle cx="256" cy="309.03" r="81.986" style="fill:rgb(196,226,255);"/>
            <path d="M337.981,309.028C337.981,354.31 301.281,391.019 256,391.019C236.01,391.019 217.691,383.861 203.467,371.968C214.05,376.96 225.87,379.745 238.341,379.745C283.622,379.745 320.322,343.046 320.322,297.764C320.322,272.472 308.873,249.852 290.874,234.824C318.713,247.913 337.981,276.217 337.981,309.028Z" style="fill:rgb(149,210,252);fill-rule:nonzero;"/>
            <path d="M285.897,323.768L265.756,309.031L285.898,294.293C289.091,291.956 291.011,288.199 291.035,284.242C291.058,280.285 289.182,276.506 286.017,274.132L265.633,258.844C261.808,255.975 256.774,255.521 252.495,257.659C248.217,259.798 245.56,264.097 245.56,268.88L245.56,294.253L232.895,284.986C229.552,282.54 224.859,283.267 222.414,286.61C219.969,289.953 220.695,294.646 224.038,297.091L240.355,309.03L224.038,320.969C220.695,323.415 219.968,328.108 222.414,331.45C223.883,333.458 226.162,334.522 228.473,334.522C230.01,334.522 231.561,334.051 232.896,333.074L245.561,323.807L245.561,349.179C245.561,353.962 248.219,358.262 252.497,360.401C254.288,361.296 256.209,361.737 258.12,361.737C260.776,361.737 263.41,360.885 265.635,359.216L286.019,343.928C289.184,341.554 291.06,337.775 291.037,333.819C291.011,329.863 289.091,326.105 285.897,323.768ZM260.559,273.789L274.366,284.144L260.559,294.246L260.559,273.789ZM260.559,344.272L260.559,323.814L274.366,333.917L260.559,344.272Z" style="fill:rgb(38,166,254);fill-rule:nonzero;"/>
            <g>
                <g>
                    <circle cx="255.572" cy="187.911" r="10.238" style="fill:rgb(3,148,229);"/>
                </g>
                <g>
                    <path d="M243.829,161.01C241.168,161.01 238.591,159.591 237.232,157.088C235.255,153.448 236.603,148.895 240.243,146.918C245.016,144.325 250.424,142.955 255.882,142.955C261.026,142.955 266.156,144.18 270.718,146.497C274.411,148.372 275.885,152.887 274.009,156.58C272.133,160.273 267.619,161.747 263.926,159.871C261.423,158.6 258.717,157.955 255.882,157.955C252.875,157.955 250.022,158.676 247.402,160.099C246.264,160.717 245.038,161.01 243.829,161.01Z" style="fill:rgb(3,148,229);fill-rule:nonzero;"/>
                </g>
                <g>
                    <path d="M293.143,136.375C291.82,136.375 290.48,136.025 289.266,135.29C279.265,129.233 267.761,126.032 255.999,126.032C244.238,126.032 232.735,129.233 222.734,135.289C219.19,137.435 214.579,136.301 212.434,132.758C210.288,129.215 211.422,124.603 214.965,122.458C227.309,114.983 241.499,111.032 255.999,111.032C270.5,111.032 284.69,114.983 297.035,122.459C300.578,124.605 301.711,129.216 299.566,132.759C298.156,135.087 295.68,136.375 293.143,136.375Z" style="fill:rgb(3,148,229);fill-rule:nonzero;"/>
                </g>
            </g>
        </g>
        <g transform="matrix(-0.328791,0.327363,-0.327363,-0.328791,369.114,333.318)">
            <circle cx="0" cy="0" r="32.753" style="fill:rgb(38,166,254);"/>
        </g>
    </g>
</svg>
