<?xml version="1.0" encoding="UTF-8" standalone="no"?>
<!DOCTYPE svg PUBLIC "-//W3C//DTD SVG 1.1//EN" "http://www.w3.org/Graphics/SVG/1.1/DTD/svg11.dtd">
<svg width="100%" height="100%" viewBox="0 0 512 512" version="1.1" xmlns="http://www.w3.org/2000/svg" xmlns:xlink="http://www.w3.org/1999/xlink" xml:space="preserve" xmlns:serif="http://www.serif.com/" style="fill-rule:evenodd;clip-rule:evenodd;stroke-linejoin:round;stroke-miterlimit:2;">
    <rect id="Artboard1" x="0" y="0" width="512" height="512" style="fill:none;"/>
    <g id="Artboard11" serif:id="Artboard1">
        <g transform="matrix(0.917215,0,0,0.917215,-26.3749,148.831)">
            <g transform="matrix(0.379367,0,0,0.379367,65.6106,61.4188)">
                <path d="M512,316L485.602,330.398L512,346L512,361C512,385.898 491.902,406 467,406L45,406C20.098,406 0,385.898 0,361L0,316L16.199,301L0,286L0,256L16.801,219.098L0,136L0,121C0,96.098 20.098,76 45,76L418.398,76C435.5,76 451.098,85.602 458.598,100.898L476.301,136L425,223L512,286L512,316Z" style="fill:rgb(230,57,80);fill-rule:nonzero;"/>
            </g>
            <g transform="matrix(0.379367,0,0,0.379367,65.6106,61.4188)">
                <path d="M512,316L485.602,330.398L512,346L512,361C512,385.898 491.902,406 467,406L195,406L195,76L418.398,76C435.5,76 451.098,85.602 458.598,100.898L476.301,136L425,223L512,286L512,316Z" style="fill:rgb(204,46,67);fill-rule:nonzero;"/>
            </g>
            <g transform="matrix(0.379367,0,0,0.379367,65.6106,61.4188)">
                <path d="M512,256L512,286L401,286L371,256L0,256L0,136L476.301,136L491.301,166L485,217.898L512,256Z" style="fill:rgb(204,46,67);fill-rule:nonzero;"/>
            </g>
            <g transform="matrix(0.379367,0,0,0.379367,65.6106,61.4188)">
                <path d="M512,256L512,286L401,286L371,256L195,256L195,136L476.301,136L491.301,166L485,217.898L512,256Z" style="fill:rgb(174,37,56);fill-rule:nonzero;"/>
            </g>
            <g transform="matrix(0.379367,0,0,0.379367,65.6106,61.4188)">
                <path d="M512,316L512,346L467,346C458.598,346 452,339.398 452,331C452,322.598 458.598,316 467,316L512,316Z" style="fill:rgb(198,226,231);fill-rule:nonzero;"/>
            </g>
            <g transform="matrix(0.379367,0,0,0.379367,65.6106,61.4188)">
                <path d="M330,301C330,309.398 323.402,316 315,316L0,316L0,286L315,286C323.402,286 330,292.598 330,301Z" style="fill:rgb(255,167,143);fill-rule:nonzero;"/>
            </g>
            <g transform="matrix(0.379367,0,0,0.379367,65.6106,61.4188)">
                <path d="M105,436C80.188,436 60,415.813 60,391C60,366.188 80.188,346 105,346C129.813,346 150,366.188 150,391C150,415.813 129.813,436 105,436Z" style="fill:rgb(74,105,111);fill-rule:nonzero;"/>
            </g>
            <g transform="matrix(0.379367,0,0,0.379367,65.6106,61.4188)">
                <path d="M195,346C170.098,346 150,366.098 150,391C150,415.898 170.098,436 195,436C219.902,436 240,415.898 240,391C240,366.098 219.902,346 195,346Z" style="fill:rgb(74,105,111);fill-rule:nonzero;"/>
            </g>
            <g transform="matrix(0.379367,0,0,0.379367,65.6106,61.4188)">
                <path d="M407,436C382.188,436 362,415.813 362,391C362,366.188 382.188,346 407,346C431.813,346 452,366.188 452,391C452,415.813 431.813,436 407,436Z" style="fill:rgb(56,73,73);fill-rule:nonzero;"/>
            </g>
            <g transform="matrix(0.379367,0,0,0.379367,65.6106,61.4188)">
                <path d="M510.5,204.398C511.398,206.5 512,208.598 512,211L512,256L413.301,256L392,234.699L392,166L491.301,166L510.5,204.398Z" style="fill:rgb(118,226,248);fill-rule:nonzero;"/>
            </g>
            <g transform="matrix(0.379367,0,0,0.379367,65.6106,61.4188)">
                <rect x="30" y="166" width="60" height="60" style="fill:rgb(168,235,250);fill-rule:nonzero;"/>
            </g>
            <g transform="matrix(0.379367,0,0,0.379367,65.6106,61.4188)">
                <rect x="120" y="166" width="60" height="60" style="fill:rgb(168,235,250);fill-rule:nonzero;"/>
            </g>
            <g transform="matrix(0.379367,0,0,0.379367,65.6106,61.4188)">
                <rect x="210" y="166" width="60" height="60" style="fill:rgb(118,226,248);fill-rule:nonzero;"/>
            </g>
            <g transform="matrix(0.379367,0,0,0.379367,65.6106,61.4188)">
                <rect x="300" y="166" width="62" height="60" style="fill:rgb(118,226,248);fill-rule:nonzero;"/>
            </g>
            <g transform="matrix(0.379367,0,0,0.379367,65.6106,61.4188)">
                <path d="M330,301C330,309.398 323.402,316 315,316L195,316L195,286L315,286C323.402,286 330,292.598 330,301Z" style="fill:rgb(248,149,128);fill-rule:nonzero;"/>
            </g>
            <g transform="matrix(0.379367,0,0,0.379367,65.6106,61.4188)">
                <path d="M240,391C240,415.898 219.902,436 195,436L195,346C219.902,346 240,366.098 240,391Z" style="fill:rgb(56,73,73);fill-rule:nonzero;"/>
            </g>
            <g transform="matrix(0.379367,0,0,0.379367,65.6106,61.4188)">
                <path d="M105,406C96.723,406 90,399.277 90,391C90,382.723 96.723,376 105,376C113.277,376 120,382.723 120,391C120,399.277 113.277,406 105,406Z" style="fill:rgb(222,236,241);fill-rule:nonzero;"/>
            </g>
            <g transform="matrix(0.379367,0,0,0.379367,65.6106,61.4188)">
                <path d="M210,391C210,399.398 203.402,406 195,406C186.598,406 180,399.398 180,391C180,382.598 186.598,376 195,376C203.402,376 210,382.598 210,391Z" style="fill:rgb(222,236,241);fill-rule:nonzero;"/>
            </g>
            <g transform="matrix(0.379367,0,0,0.379367,65.6106,61.4188)">
                <path d="M407,406C398.723,406 392,399.277 392,391C392,382.723 398.723,376 407,376C415.277,376 422,382.723 422,391C422,399.277 415.277,406 407,406Z" style="fill:rgb(198,226,231);fill-rule:nonzero;"/>
            </g>
            <g transform="matrix(0.379367,0,0,0.379367,65.6106,61.4188)">
                <path d="M210,391C210,399.398 203.402,406 195,406L195,376C203.402,376 210,382.598 210,391Z" style="fill:rgb(198,226,231);fill-rule:nonzero;"/>
            </g>
        </g>
        <g transform="matrix(0.975778,0,0,0.975778,-53.0816,6.30973)">
            <g transform="matrix(0.349098,0,0,0.349098,288.553,24.5241)">
                <path d="M369.152,182.945L361.658,205.261C353.15,230.599 325.462,244.376 300.114,235.868L281.938,229.761L154.927,187.138C129.579,178.63 115.812,150.932 124.31,125.594L131.804,103.278C136.959,87.918 149.162,76.812 163.611,72.34C173.009,69.421 183.36,69.307 193.348,72.661L338.545,121.402C363.884,129.909 377.66,157.597 369.152,182.945Z" style="fill:rgb(120,185,235);fill-rule:nonzero;"/>
            </g>
            <g transform="matrix(0.349098,0,0,0.349098,288.553,24.5241)">
                <path d="M291.896,221.18L281.939,229.761L154.928,187.138C129.58,178.63 115.813,150.932 124.311,125.594L131.805,103.278C136.96,87.918 149.163,76.812 163.612,72.34L291.896,221.18Z" style="fill:rgb(90,170,231);fill-rule:nonzero;"/>
            </g>
            <g transform="matrix(0.349098,0,0,0.349098,288.553,24.5241)">
                <path d="M265.616,233.032L180.897,306.055L168.103,317.078L11.976,135.954L24.78,124.92L109.499,51.897L265.616,233.032Z" style="fill:rgb(199,0,36);fill-rule:nonzero;"/>
            </g>
            <g transform="matrix(0.349098,0,0,0.349098,288.553,24.5241)">
                <path d="M265.616,233.032L180.897,306.055L24.78,124.92L109.499,51.897L265.616,233.032Z" style="fill:rgb(255,12,56);fill-rule:nonzero;"/>
            </g>
            <g transform="matrix(0.349098,0,0,0.349098,288.553,24.5241)">
                <path d="M118.421,62.972L21.613,146.408C16.717,150.621 9.254,150.072 5.031,145.176L2.837,142.63C-1.386,137.734 -0.827,130.271 4.069,126.048L11.728,119.444L100.867,42.612C105.721,38.43 113.07,38.927 117.314,43.688C117.366,43.74 117.418,43.792 117.459,43.843L119.643,46.389C123.865,51.287 123.317,58.749 118.421,62.972Z" style="fill:rgb(165,0,30);fill-rule:nonzero;"/>
            </g>
            <g transform="matrix(0.349098,0,0,0.349098,288.553,24.5241)">
                <path d="M117.313,43.689L28.164,120.521C23.32,124.703 15.971,124.195 11.727,119.445L100.866,42.613C105.721,38.431 113.07,38.928 117.313,43.689Z" style="fill:rgb(199,0,36);fill-rule:nonzero;"/>
            </g>
            <g transform="matrix(0.349098,0,0,0.349098,288.553,24.5241)">
                <circle cx="129.029" cy="173.516" r="45.563" style="fill:rgb(165,0,30);"/>
            </g>
            <g transform="matrix(0.349098,0,0,0.349098,288.553,24.5241)">
                <path d="M161.17,171.02L153.363,164.878L155.94,154.289C156.954,150.124 154.399,145.924 150.234,144.91C146.067,143.895 141.87,146.451 140.855,150.616L139.117,157.756C136.178,157.047 132.699,156.504 128.905,156.504C118.925,156.504 105.091,160.248 95.862,178.086C94.108,181.477 95.079,185.642 98.155,187.906C99.132,188.625 108.038,194.932 119.658,194.932C127.513,194.932 138.042,192.03 146.835,179.498L151.57,183.223C152.993,184.343 154.684,184.885 156.364,184.885C158.663,184.885 160.939,183.869 162.47,181.922C165.122,178.551 164.54,173.67 161.17,171.02ZM119.658,179.404C117.7,179.404 115.826,179.055 114.157,178.563C118.128,174.179 123.003,172.029 128.905,172.029C130.264,172.029 131.575,172.144 132.803,172.328C128.972,177.03 124.572,179.404 119.658,179.404Z" style="fill:rgb(255,205,0);fill-rule:nonzero;"/>
            </g>
            <g transform="matrix(0.349098,0,0,0.349098,288.553,24.5241)">
                <path d="M473.853,68.748L367.18,23.831C358.052,19.988 347.537,24.273 343.694,33.401L328.864,68.628C328.755,68.681 328.751,68.683 328.86,68.63L285.238,103.478C283.75,104.666 282.35,105.963 281.068,107.345C277.915,110.715 275.369,114.629 273.567,118.91L237.926,203.568C232.25,217.051 238.576,232.577 252.059,238.254L277.19,248.834L277.189,248.836L400.695,300.831C414.179,306.507 429.712,300.179 435.388,286.695L471.057,201.971C473.579,195.978 474.574,189.453 473.95,182.981L468.596,127.458L483.424,92.236C487.266,83.105 482.981,72.59 473.853,68.748Z" style="fill:rgb(255,114,139);fill-rule:nonzero;"/>
            </g>
            <g transform="matrix(0.349098,0,0,0.349098,288.553,24.5241)">
                <path d="M400.694,300.831L277.188,248.836L323.105,139.768C325.647,133.731 329.66,128.425 334.778,124.336L378.405,89.485L468.592,127.454L473.946,182.98C474.57,189.452 473.576,195.978 471.053,201.97L435.384,286.694C429.711,300.178 414.178,306.508 400.694,300.831Z" style="fill:rgb(255,63,98);fill-rule:nonzero;"/>
            </g>
            <g transform="matrix(0.349098,0,0,0.349098,288.553,24.5241)">
                <path d="M468.593,127.456L425.755,162.895C424.361,164.051 423.058,165.29 421.854,166.615C418.812,169.916 416.36,173.734 414.606,177.9L368.551,287.296L252.06,238.253C238.577,232.577 232.251,217.05 237.927,203.567L273.568,118.909C275.37,114.628 277.916,110.714 281.069,107.344C282.351,105.961 283.751,104.664 285.239,103.477L328.861,68.629L468.593,127.456Z" style="fill:rgb(255,114,139);fill-rule:nonzero;"/>
            </g>
            <g transform="matrix(0.349098,0,0,0.349098,288.553,24.5241)">
                <path d="M421.853,166.615C418.811,169.916 416.359,173.734 414.605,177.9L392.749,229.816L251.848,170.497L273.567,118.909C275.369,114.628 277.915,110.714 281.068,107.344L421.853,166.615Z" style="fill:rgb(255,165,181);fill-rule:nonzero;"/>
            </g>
            <g transform="matrix(0.349098,0,0,0.349098,288.553,24.5241)">
                <path d="M473.951,182.976L468.589,127.456L425.759,162.896C424.362,164.055 423.058,165.287 421.857,166.612C418.814,169.914 416.361,173.733 414.601,177.904L368.552,287.299L400.69,300.827C414.177,306.509 429.713,300.175 435.385,286.699L471.053,201.97C473.578,195.977 474.572,189.456 473.951,182.976Z" style="fill:rgb(255,12,56);fill-rule:nonzero;"/>
            </g>
            <g transform="matrix(0.349098,0,0,0.349098,288.553,24.5241)">
                <path d="M344.639,172.997C344.997,181.988 336.14,188.72 327.697,185.606C327.504,185.535 327.312,185.459 327.12,185.378C326.929,185.297 326.74,185.213 326.555,185.124C318.427,181.262 317.051,170.222 323.733,164.194L338.569,150.81C340.557,149.016 343.735,150.355 343.842,153.03L344.639,172.997Z" style="fill:rgb(255,63,98);fill-rule:nonzero;"/>
            </g>
            <g transform="matrix(0.349098,0,0,0.349098,288.553,24.5241)">
                <path d="M357.238,80.568L356.783,81.676L313.156,116.526C311.666,117.716 310.268,119.01 308.985,120.397C305.838,123.761 303.292,127.684 301.491,131.959L256.393,240.07L252.056,238.248C238.58,232.576 232.245,217.05 237.928,203.563L273.565,118.906C275.366,114.631 277.912,110.719 281.069,107.344C282.352,105.957 283.75,104.663 285.24,103.473L328.857,68.633C328.857,68.623 328.867,68.623 328.867,68.623L357.238,80.568Z" style="fill:rgb(255,63,98);fill-rule:nonzero;"/>
            </g>
            <g transform="matrix(0.349098,0,0,0.349098,288.553,24.5241)">
                <path d="M309.875,119.476C309.564,119.776 309.275,120.087 308.985,120.397C305.838,123.761 303.292,127.684 301.491,131.959L280.407,182.511L251.85,170.494L273.565,118.907C275.366,114.632 277.912,110.72 281.069,107.345L309.875,119.476Z" style="fill:rgb(255,114,139);fill-rule:nonzero;"/>
            </g>
            <g transform="matrix(0.349098,0,0,0.349098,288.553,24.5241)">
                <path d="M468.593,127.461L328.864,68.627L343.694,33.4C347.537,24.272 358.052,19.987 367.18,23.83L473.852,68.747C482.98,72.59 487.265,83.105 483.422,92.233L468.593,127.461Z" style="fill:rgb(255,63,98);fill-rule:nonzero;"/>
            </g>
            <g transform="matrix(0.349098,0,0,0.349098,288.553,24.5241)">
                <path d="M378.53,28.609L357.239,80.569L328.868,68.624L343.69,33.401C347.54,24.272 358.057,19.987 367.186,23.827L378.53,28.609Z" style="fill:rgb(255,12,56);fill-rule:nonzero;"/>
            </g>
            <g transform="matrix(0.349098,0,0,0.349098,288.553,24.5241)">
                <path d="M484.312,238.124L410.337,465.546C407.18,475.244 398.144,481.817 387.939,481.817L125.273,481.817C115.109,481.817 106.093,475.296 102.906,465.649L27.688,238.124L484.312,238.124Z" style="fill:rgb(126,214,62);fill-rule:nonzero;"/>
            </g>
            <g transform="matrix(0.349098,0,0,0.349098,288.553,24.5241)">
                <path d="M484.312,238.124L410.337,465.546C407.18,475.244 398.144,481.817 387.939,481.817L169.584,481.817C159.42,481.817 150.404,475.296 147.217,465.649L72.009,238.124L484.312,238.124Z" style="fill:rgb(164,226,118);fill-rule:nonzero;"/>
            </g>
            <g transform="matrix(0.349098,0,0,0.349098,288.553,24.5241)">
                <path d="M490.588,233.561C489.128,231.551 486.792,230.361 484.307,230.361L72.424,230.361C68.137,230.361 64.661,233.837 64.661,238.124C64.661,242.411 68.137,245.887 72.424,245.887L473.619,245.887L445.637,331.916L399.749,331.916L412.295,272.971C413.187,268.777 410.512,264.654 406.319,263.762C402.127,262.868 398.002,265.544 397.11,269.738L383.876,331.916L331.578,331.916L336.879,272.038C337.257,267.767 334.102,263.999 329.83,263.621C325.57,263.241 321.791,266.398 321.413,270.67L315.991,331.916L263.762,331.916L263.762,271.354C263.762,267.067 260.286,263.591 255.999,263.591C251.712,263.591 248.236,267.067 248.236,271.354L248.236,331.916L197.736,331.916L192.314,270.67C191.936,266.399 188.158,263.249 183.897,263.621C179.626,263.999 176.471,267.767 176.848,272.038L182.149,331.916L172.652,331.916C168.365,331.916 164.889,335.392 164.889,339.679C164.889,343.966 168.365,347.442 172.652,347.442L183.523,347.442L188.412,402.669L144.91,402.669L133.155,347.442L141.601,347.442C145.888,347.442 149.364,343.966 149.364,339.679C149.364,335.392 145.888,331.916 141.601,331.916L129.851,331.916L116.617,269.738C115.724,265.545 111.605,262.864 107.408,263.762C103.215,264.654 100.539,268.777 101.432,272.971L113.978,331.916L66.872,331.916L38.434,245.887L41.373,245.887C45.66,245.887 49.136,242.411 49.136,238.124C49.136,233.837 45.66,230.361 41.373,230.361L27.693,230.361C25.201,230.361 22.861,231.558 21.401,233.577C19.942,235.597 19.54,238.194 20.322,240.56L95.533,468.09C99.782,480.943 111.732,489.58 125.269,489.58L153.795,489.58C153.801,489.58 153.806,489.581 153.813,489.581C153.822,489.581 153.833,489.58 153.842,489.58L359.884,489.58C359.893,489.58 359.904,489.581 359.913,489.581C359.919,489.581 359.924,489.58 359.931,489.58L387.935,489.58C401.541,489.58 413.51,480.887 417.719,467.948L440.764,397.094C442.09,393.017 439.859,388.637 435.782,387.311C431.704,385.986 427.326,388.216 425.999,392.293L422.624,402.671L384.69,402.671L396.445,347.444L440.588,347.444L435.605,362.764C434.279,366.841 436.51,371.221 440.587,372.547C441.385,372.806 442.193,372.93 442.989,372.93C446.261,372.93 449.303,370.845 450.37,367.566L491.689,240.527C492.458,238.161 492.049,235.573 490.588,233.561ZM314.617,347.442L309.728,402.669L263.762,402.669L263.762,347.442L314.617,347.442ZM318.995,474.053L323.939,418.195L365.511,418.195L353.621,474.053L318.995,474.053ZM303.409,474.053L263.762,474.053L263.762,418.195L308.353,418.195L303.409,474.053ZM210.318,474.053L205.374,418.195L248.238,418.195L248.238,474.053L210.318,474.053ZM199.11,347.442L248.237,347.442L248.237,402.669L204,402.669L199.11,347.442ZM189.788,418.195L194.732,474.053L160.104,474.053L148.215,418.195L189.788,418.195ZM117.282,347.442L129.037,402.669L90.26,402.669L72.005,347.442L117.282,347.442ZM110.274,463.216L95.392,418.194L132.342,418.194L144.232,474.052L125.27,474.052C118.443,474.053 112.417,469.698 110.274,463.216ZM417.575,418.195L402.956,463.144C400.834,469.669 394.799,474.052 387.937,474.052L369.498,474.052L381.388,418.194L417.575,418.194L417.575,418.195ZM368.817,402.669L325.315,402.669L330.204,347.442L380.573,347.442L368.817,402.669Z" style="fill:rgb(94,172,36);fill-rule:nonzero;"/>
            </g>
            <g transform="matrix(0.349098,0,0,0.349098,288.553,24.5241)">
                <path d="M512,238.124C512,247.264 508.263,255.575 502.239,261.589C496.215,267.613 487.904,271.35 478.764,271.35L33.236,271.35C14.957,271.35 0,256.404 0,238.125C0,228.985 3.737,220.674 9.761,214.65C15.785,208.626 24.096,204.889 33.236,204.889L478.764,204.889C496.422,204.889 510.985,218.852 511.948,236.272C511.979,236.882 512,237.503 512,238.124Z" style="fill:rgb(78,144,30);fill-rule:nonzero;"/>
            </g>
            <g transform="matrix(0.349098,0,0,0.349098,288.553,24.5241)">
                <path d="M511.948,236.271L66.42,236.271C48.762,236.271 34.209,222.308 33.247,204.888L478.765,204.888C496.422,204.888 510.985,218.851 511.948,236.271Z" style="fill:rgb(94,172,36);fill-rule:nonzero;"/>
            </g>
            <g transform="matrix(0.349098,0,0,0.349098,288.553,24.5241)">
                <path d="M278.543,68.251L278.543,226.045C278.543,231.893 276.287,237.234 272.602,241.25C268.472,245.752 262.552,248.589 256,248.589C243.6,248.589 233.457,238.445 233.457,226.046L233.457,68.251C233.457,55.861 243.601,45.718 256,45.718C262.2,45.718 267.841,48.254 271.919,52.342C272.147,52.57 272.374,52.808 272.602,53.056C276.287,57.062 278.543,62.414 278.543,68.251Z" style="fill:rgb(71,130,28);fill-rule:nonzero;"/>
            </g>
            <g transform="matrix(0.349098,0,0,0.349098,288.553,24.5241)">
                <path d="M278.543,68.251L278.543,226.045C278.543,231.893 276.287,237.234 272.602,241.25C268.907,237.234 266.65,231.893 266.65,226.045L266.65,68.251C266.65,62.413 268.906,57.062 272.602,53.056C276.287,57.062 278.543,62.414 278.543,68.251Z" style="fill:rgb(78,144,30);fill-rule:nonzero;"/>
            </g>
            <g transform="matrix(0.349098,0,0,0.349098,288.553,24.5241)">
                <circle cx="255.999" cy="226.666" r="6.693" style="fill:rgb(164,226,118);"/>
            </g>
        </g>
        <g transform="matrix(0.288924,0,0,0.288924,329.817,328.356)">
            <path d="M0,60L0,512L120,512L256,60L0,60Z" style="fill:rgb(255,113,73);fill-rule:nonzero;"/>
            <path d="M512,60L256,60L392,512L512,512L512,60Z" style="fill:rgb(255,43,89);fill-rule:nonzero;"/>
            <rect x="45" y="120" width="30" height="30" style="fill:white;"/>
            <rect x="45" y="180" width="30" height="30" style="fill:white;"/>
            <rect x="45" y="240" width="30" height="30" style="fill:white;"/>
            <rect x="45" y="300" width="30" height="30" style="fill:white;"/>
            <rect x="437" y="120" width="30" height="30" style="fill:rgb(255,234,195);"/>
            <rect x="437" y="180" width="30" height="30" style="fill:rgb(255,234,195);"/>
            <rect x="437" y="240" width="30" height="30" style="fill:rgb(255,234,195);"/>
            <rect x="437" y="300" width="30" height="30" style="fill:rgb(255,234,195);"/>
            <rect x="45" y="360" width="30" height="30" style="fill:white;"/>
            <rect x="437" y="360" width="30" height="30" style="fill:rgb(255,234,195);"/>
            <path d="M392,0L256,0L196,256L332,512L392,512L392,0Z" style="fill:rgb(255,113,73);fill-rule:nonzero;"/>
            <path d="M120,0L120,512L180,512L256,452L256,0L120,0Z" style="fill:rgb(255,148,65);fill-rule:nonzero;"/>
            <path d="M332,60L256,60L226,104.5L256,149L332,149L332,60Z" style="fill:rgb(191,220,255);fill-rule:nonzero;"/>
            <rect x="180" y="60" width="76" height="89" style="fill:white;"/>
            <path d="M332,180L256,180L226,224.5L256,269L332,269L332,180Z" style="fill:rgb(191,220,255);fill-rule:nonzero;"/>
            <rect x="180" y="180" width="76" height="89" style="fill:white;"/>
            <path d="M332,374L332,299L256,299L226,404L332,374Z" style="fill:rgb(255,234,195);fill-rule:nonzero;"/>
            <path d="M256,299L180,299L180,374L256,404L256,299Z" style="fill:white;fill-rule:nonzero;"/>
            <path d="M256,374L216,443L256,512L332,512L332,374L256,374Z" style="fill:rgb(9,33,61);fill-rule:nonzero;"/>
            <rect x="180" y="374" width="76" height="138" style="fill:rgb(35,57,82);"/>
        </g>
    </g>
</svg>
