<?xml version="1.0" encoding="UTF-8" standalone="no"?>
<svg
   xmlns:dc="http://purl.org/dc/elements/1.1/"
   xmlns:cc="http://creativecommons.org/ns#"
   xmlns:rdf="http://www.w3.org/1999/02/22-rdf-syntax-ns#"
   xmlns:svg="http://www.w3.org/2000/svg"
   xmlns="http://www.w3.org/2000/svg"
   xmlns:sodipodi="http://sodipodi.sourceforge.net/DTD/sodipodi-0.dtd"
   xmlns:inkscape="http://www.inkscape.org/namespaces/inkscape"
   inkscape:version="1.0beta1 (fe3e306, 2019-09-17)"
   inkscape:export-ydpi="204"
   inkscape:export-xdpi="204"
   inkscape:export-filename="/Users/rapha/CovidTracer/CovidTracer.Android/Resources/drawable/virus.png"
   sodipodi:docname="virus.svg"
   version="1.1"
   width="512"
   viewBox="0 0 511.973 511.973"
   height="512"
   enable-background="new 0 0 511.973 511.973"
   id="Layer_1">
  <metadata
     id="metadata935">
    <rdf:RDF>
      <cc:Work
         rdf:about="">
        <dc:format>image/svg+xml</dc:format>
        <dc:type
           rdf:resource="http://purl.org/dc/dcmitype/StillImage" />
        <dc:title></dc:title>
      </cc:Work>
    </rdf:RDF>
  </metadata>
  <defs
     id="defs933" />
  <sodipodi:namedview
     inkscape:current-layer="Layer_1"
     inkscape:window-maximized="0"
     inkscape:window-y="23"
     inkscape:window-x="0"
     inkscape:cy="256"
     inkscape:cx="615.8028"
     inkscape:zoom="0.53125"
     showgrid="false"
     id="namedview931"
     inkscape:window-height="702"
     inkscape:window-width="1175"
     inkscape:pageshadow="2"
     inkscape:pageopacity="0"
     guidetolerance="10"
     gridtolerance="10"
     objecttolerance="10"
     borderopacity="1"
     inkscape:document-rotation="0"
     bordercolor="#666666"
     pagecolor="#ffffff" />
  <g
     id="g928">
    <circle
       id="circle908"
       r="164.558"
       fill="#ff7c48"
       cy="255.986"
       cx="255.986" />
    <path
       id="path910"
       fill="#ff415b"
       d="m255.986 91.428v329.117c90.883 0 164.558-73.675 164.558-164.558s-73.675-164.559-164.558-164.559z" />
    <path
       id="path912"
       fill="#ff415b"
       d="m459.196 355.989-40.771-23.539c8.943-18.922 14.674-39.644 16.487-61.464h25.118v16.458h30v-62.915h-30v16.458h-25.118c-1.813-21.82-7.545-42.542-16.487-61.464l40.771-23.539 10.236 17.729 25.98-15-35.471-61.438-25.98 15 10.236 17.729-40.814 23.564c-12.21-17.519-27.458-32.766-44.977-44.976l12.593-21.811 14.252 8.229 15-25.98-54.485-31.46-15 25.98 14.252 8.229-12.568 21.769c-18.922-8.943-39.644-14.674-61.464-16.488v-47.06h20.472v-30h-70.943v30h20.472v47.06c-21.82 1.813-42.542 7.545-61.464 16.488l-12.568-21.769 14.252-8.229-15-25.98-54.485 31.458 15 25.98 14.252-8.229 12.593 21.811c-17.519 12.21-32.766 27.458-44.977 44.976l-40.814-23.564 10.236-17.729-25.98-15-35.472 61.439 25.98 15 10.236-17.729 40.771 23.539c-8.943 18.922-14.674 39.644-16.487 61.464h-25.118v-16.458h-30v62.915h30v-16.458h25.118c1.813 21.82 7.545 42.542 16.487 61.464l-40.771 23.539-10.235-17.728-25.98 15 35.471 61.438 25.98-15-10.236-17.728 40.814-23.564c12.21 17.519 27.458 32.766 44.976 44.976l-12.593 21.811-14.252-8.229-15 25.98 54.485 31.458 15-25.98-14.252-8.229 12.568-21.769c18.922 8.943 39.644 14.674 61.464 16.488v47.06h-20.472v30h70.943v-30h-20.472v-47.06c21.82-1.813 42.542-7.545 61.464-16.488l12.568 21.769-14.252 8.229 15 25.98 54.485-31.458-15-25.98-14.252 8.229-12.593-21.811c17.519-12.21 32.766-27.458 44.976-44.976l40.814 23.564-10.236 17.729 25.98 15 35.471-61.438-25.98-15zm-203.21 49.555c-82.467 0-149.558-67.091-149.558-149.558s67.091-149.558 149.558-149.558 149.558 67.091 149.558 149.558-67.091 149.558-149.558 149.558z" />
    <g
       id="g920"
       fill="#ffb655">
      <circle
         id="circle914"
         r="42.75"
         cy="203.733"
         cx="317.018" />
      <ellipse
         id="ellipse916"
         transform="matrix(.707 -.707 .707 .707 -153.82 293.961)"
         ry="43.333"
         rx="43.333"
         cy="332.658"
         cx="277.932" />
      <circle
         id="circle918"
         r="47.083"
         cy="233.902"
         cx="183.685" />
    </g>
    <circle
       id="circle922"
       r="42.75"
       fill="#ff7c48"
       cy="203.733"
       cx="317.018" />
    <path
       id="path924"
       fill="#e50058"
       d="m459.196 355.989-40.771-23.539c8.943-18.922 14.674-39.644 16.487-61.464h25.118v16.458h30v-62.915h-30v16.458h-25.118c-1.813-21.82-7.545-42.542-16.487-61.464l40.771-23.539 10.236 17.729 25.98-15-35.471-61.438-25.98 15 10.236 17.729-40.814 23.564c-12.21-17.519-27.458-32.766-44.977-44.976l12.593-21.811 14.252 8.229 15-25.98-54.485-31.46-15 25.98 14.252 8.229-12.568 21.769c-18.922-8.943-39.644-14.674-61.464-16.488v-47.06h20.472v-30h-35.472v106.428c82.467 0 149.558 67.091 149.558 149.558s-67.091 149.558-149.558 149.558v106.428h35.472v-30h-20.472v-47.06c21.82-1.813 42.542-7.545 61.464-16.488l12.568 21.769-14.252 8.229 15 25.98 54.485-31.458-15-25.98-14.252 8.229-12.593-21.811c17.519-12.21 32.766-27.458 44.976-44.976l40.814 23.564-10.236 17.729 25.98 15 35.471-61.438-25.98-15z" />
    <path
       id="path926"
       fill="#ff7c48"
       d="m321.266 332.658c0-23.894-19.439-43.333-43.333-43.333-8.005 0-15.504 2.19-21.946 5.991v74.685c6.441 3.8 13.941 5.99 21.946 5.99 23.893 0 43.333-19.439 43.333-43.333z" />
  </g>
</svg>
